<svg class="da_svg" version="1.1" id="Layer_1" xmlns="http://www.w3.org/2000/svg" x="0" y="0" viewBox="0 0 1080 1080" style="enable-background:new 0 0 1080 1080" xml:space="preserve"><style>.da_svg .st0{fill:#fac19d}.da_svg .st2{fill:#283372}.da_svg .st3{fill:#f26724}.da_svg .st4{fill:#fff}</style><path class="st0" d="M719.76 812.63c-11.67 59.08-30.9 84.39-68.37 103.13-41.72 20.86-33.6 64.91-33.6 64.91 0 19.22 16.99 78.28 16.99 78.28l-413.47-.1 7.04-311.46 538.92-514.37-21 496.88-26.51 82.73z"/><path class="st1" d="M688.95 6.78H343.39c-46.68 0-81.09 21.67-81.09 62.31v379.75l156 371.08 265.9 2.1c46.66 0 93.29-37.42 93.29-78.06V69.09c.01-40.64-41.88-62.31-88.54-62.31" style="fill:#fee1cf"/><path class="st2" d="M697.77 365.38c0 94.28-76.46 170.77-170.79 170.77-94.32 0-170.76-76.49-170.76-170.77 0-94.32 76.44-170.77 170.76-170.77 94.33 0 170.79 76.45 170.79 170.77"/><path class="st3" d="M391.59 705.01c15.24 27.12 23.79 50.39 23.79 84.52 0 19.04-2.67 37.51-7.68 44.28h285.62c50.88 0 84.17-29.36 84.17-75.22v-53.58h-385.9zM777.5 54.35C777.5 8.49 733.6 0 687.75 0h-353c-45.86 0-72.45 8.49-72.45 54.35v27h515.2v-27z"/><path class="st4" d="M496.18 27.01h68.08v20.34h-68.08z"/><path class="st3" d="M262.3 69.09h24.25V787.5H262.3zM753.27 70.65h24.25v640.42h-24.25z"/><path class="st0" d="M884.09 222.93c-12.89-26.9-46.56-38.24-73.43-25.35l-33.15 19.63v126.28l79.84-48.53c26.89-12.9 39.65-45.15 26.74-72.03M336.95 579.87s-14.27-6.08-17.26-29.65c-4.92-38.66-11.92-76.03-20.9-114.64-13.73-58.99-10.69-62.92-41.18-81.86-31.37-19.48-70.21-7.13-70.21-7.13l.58 363.79c10.93 144.3 39.8 187.93 39.8 187.93l-6.47 142.46s18.77-50.05 65-105.68c20.29-24.42 65.97-46.75 95.46-71.6 64.79-54.54 51.25-134.68 51.25-134.68 0-67.32-36.1-126.68-96.07-148.94M731.84 482.46c-12.9-26.91-1.57-59.15 25.35-72.07l43.15-24.89c26.89-12.88 59.15-1.55 72.04 25.35 12.89 26.89 1.54 59.14-25.35 72.03l-43.17 24.92c-26.9 12.89-59.13 1.54-72.02-25.34"/><path class="st0" d="M732.93 594.73c-12.89-26.89-1.54-59.15 25.35-72.05l43.15-24.9c26.89-12.9 59.15-1.54 72.04 25.34 12.9 26.89 1.54 59.14-25.34 72.04l-43.15 24.92c-26.91 12.88-59.16 1.57-72.05-25.35"/><path class="st0" d="M746.75 701.01c-12.9-26.89-1.56-59.14 25.34-72.05l43.17-24.9c26.88-12.89 59.14-1.55 72.03 25.34 12.88 26.89 1.55 59.14-25.34 72.04l-43.17 24.92c-26.9 12.89-59.15 1.56-72.03-25.35"/><circle class="st4" cx="526.99" cy="306.9" r="52.03"/><path class="st4" d="M578.73 363.3H475.26c-33.61 0-60.87 27.25-60.87 60.87v36.67c0 8.32 6.74 15.06 15.06 15.06h195.08c8.32 0 15.06-6.74 15.06-15.06v-36.67c.01-33.62-27.24-60.87-60.86-60.87z"/><path class="st2" d="M187.4 955.98h469.77V1080H187.4z"/></svg>
