<svg version="1.1" id="Layer_1" xmlns="http://www.w3.org/2000/svg" x="0" y="0" viewBox="0 0 1080 1080" style="enable-background:new 0 0 1080 1080" xml:space="preserve"><style>.st2{fill:#fff}.st3{fill:#25326a}.st4{fill:#e35e26}.st5{fill:#d9ffff}</style><path d="M1021.1 977.4H170.7c-20.5 0-37-16.6-37-37V90c0-20.5 16.6-37 37-37h850.4c20.5 0 37 16.6 37 37v850.4c0 20.4-16.6 37-37 37z" style="fill:#ffede3"/><path d="M974.8 929.7H216.9c-19.6 0-35.6-16-35.6-35.6V136.2c0-19.6 16-35.6 35.6-35.6h757.9c19.6 0 35.6 16 35.6 35.6v757.9c0 19.7-15.9 35.6-35.6 35.6z" style="fill:#f6bd98"/><circle class="st2" cx="800.9" cy="539.8" r="167.4"/><circle class="st3" cx="800.9" cy="539.8" r="88"/><path id="Path_64_17_" class="st4" d="M264.2 426.9h125.1v49.7H264.2v-49.7z"/><path id="Path_64_16_" class="st4" d="M264.2 565.3h125.1V615H264.2v-49.7z"/><path id="Path_64_15_" class="st4" d="M264.2 703.7h125.1v49.7H264.2v-49.7z"/><path id="Path_64_9_" class="st4" d="M417.4 426.9h125.1v49.7H417.4v-49.7z"/><path id="Path_64_8_" class="st4" d="M417.4 565.3h125.1V615H417.4v-49.7z"/><path id="Path_64_7_" class="st4" d="M417.4 703.7h125.1v49.7H417.4v-49.7z"/><path id="Path_64_11_" class="st3" d="M227.5 977.4h125.1v49.7H227.5v-49.7z"/><path id="Path_64_10_" class="st3" d="M819.5 977.4h125.1v49.7H819.5v-49.7z"/><path class="st4" d="M801 707c91.8 0 166.3-74.5 167-166 0-.5.3-.9.3-1.3 0-.5-.2-.8-.3-1.3-.6-92.1-75.6-165.9-167-166H800.7c-90.1 0-167.3 72.8-167.3 167.3 0 92 74.7 167.3 167.6 167.3zM671.1 525.7h-9c2.7-27.4 13.3-53 30.8-74.2l6.3 6.3c5.5 5.5 14.3 5.5 19.8 0s5.5-14.3 0-19.8l-6.2-6.2c21.2-17.4 46.8-28 74.1-30.7v8.8c0 7.7 6.3 14 14 14s14-6.3 14-14v-8.8c27.3 2.7 52.8 13.3 74 30.8l-6.1 6.1c-5.5 5.5-5.5 14.3 0 19.8s14.3 5.5 19.8 0l6-6c17.4 21.1 28 46.7 30.7 73.9h-8.6c-7.7 0-14 6.3-14 14s6.3 14 14 14h8.5c-2.7 27.2-13.3 52.7-30.7 73.9l-6-6c-5.5-5.5-14.3-5.5-19.8 0s-5.5 14.3 0 19.8l6.1 6.1c-21.1 17.4-46.6 28.1-74 30.8v-8.7c0-7.7-6.3-14-14-14s-14 6.3-14 14v8.8c-27.3-2.7-52.8-13.3-74.1-30.7l6.2-6.2c5.5-5.5 5.5-14.3 0-19.8s-14.3-5.5-19.8 0l-6.3 6.3c-17.4-21.2-28.1-46.8-30.8-74.1h9c7.7 0 14-6.3 14-14 .1-7.9-6.1-14.2-13.9-14.2z"/><path class="st5" d="M354 208.6v-.8.8zM354 208.6v-.8.8zM22 211.9v-.8c-.1.1-.1.3 0 .8z"/><path class="st5" d="M22 211.9v-.8c-.1.1-.1.3 0 .8z"/><path d="M186.7 128.9c39 37.1 100.9 67.3 167.1 79.9 0 4 .3 26 1.6 127.4 1.7 135.3-140.9 202.2-163.1 212.5-21.6-8.8-166.9-73.9-168.6-209.2-1.2-101.4-1.5-123.4-1.6-127.4 65.9-14 126.6-45.4 164.6-83.2z" style="fill:#bfc5d8"/><path class="st2" d="M187.3 153.3c38.1 31.1 90.8 55.3 148.6 68.4l1.4 114.6c.6 52.4-22.2 100-67.8 141.4-30 27.2-61.6 44.2-77.6 51.8-.7-.3-1.5-.7-2.2-1l-2.7-375c.1 0 .2-.1.3-.2zM187 153.6l2.7 375c-16.8-7.7-47.3-23.8-76.7-49.2-46.6-40.5-70.6-87.6-71.2-140.1l-1.4-114.6c57.3-14.2 109.2-39.4 146.6-71.1z"/><path class="st4" d="m121.1 317.1.7 98.2c.1 10.9 134.2 10.1 134.2-.9l-.7-98.2-134.2.9zm50.7 36.8c-.1-9.1 7.3-16.5 16.4-16.6 9.2-.1 16.7 7.2 16.7 16.4 0 6.7-4 12.5-9.7 15.1l.2 27.9c0 3.7-3 6.8-6.8 6.8-3.7 0-6.8-3-6.8-6.7l-.2-27.8c-5.7-2.6-9.7-8.4-9.8-15.1z"/><path class="st3" d="m132.8 310.1 13.6-.1v-6.6c-.2-22.9 18.5-41.7 41.5-41.8 23-.2 41.9 18.4 42 41.3v6.6l13.6-.1v-6.6c-.2-30.4-25.2-54.9-55.7-54.7-30.5.2-55.2 25.1-55 55.4v6.6z"/></svg>
