<svg version="1.1" id="Layer_1" xmlns="http://www.w3.org/2000/svg" xmlns:xlink="http://www.w3.org/1999/xlink" x="0" y="0" viewBox="0 0 1080 1080" style="enable-background:new 0 0 1080 1080" xml:space="preserve"><style>.st3{fill:#b2bed1}.st5{fill:#fcc39e}.st6{fill:#f16925}.st9{fill:#273472}</style><path style="fill:#e4eaf4" d="M703.1 418.5H379.7l36.8-157.8h249.8z"/><path id="SVGID_1_" style="fill:#c3cfe2" d="M379.7 417.1h323.5V510H379.7z"/><defs><path id="SVGID_2_" d="M379.7 417.1h323.5V510H379.7z"/></defs><clipPath id="SVGID_3_"><use xlink:href="#SVGID_2_" style="overflow:visible"/></clipPath><g style="clip-path:url(#SVGID_3_)"><path class="st3" d="M362.6 432.1h357.6V443H362.6zM362.6 458.6h357.6v10.9H362.6zM362.6 485.1h357.6V496H362.6z"/></g><path d="M125.1 491.2v-27.1H4.7v134.3c0 24.4 19.8 44.3 44.3 44.3h160.7V525h-51.5c-24.4 0-33.1-9.4-33.1-33.8z" style="fill:#ccd0d6"/><path class="st5" d="M392.4 575.8v-.2c0-7 5.7-12.7 12.7-12.7h20.1c21.4 0 38.9-17.3 38.9-38.9v-.4H219.7v94.6s67.5 54.7 101.7 62.9c64.3 15.5 108.9 8.8 108.9 8.8 53.1 0 96-43 96-96v-1c0-2.5-1.9-4.4-4.4-4.4H405.1c-7 0-12.7-5.7-12.7-12.7z"/><path class="st6" d="M224.4 654.9h-35.9V523.6h44.7V646c0 4.9-3.8 8.9-8.8 8.9z"/><path d="M219.2 632.6c0 5.6-4.5 10.1-10.1 10.1s-10.1-4.5-10.1-10.1 4.5-10.1 10.1-10.1c5.6-.1 10.1 4.4 10.1 10.1z" style="fill:#fff"/><path d="M956.9 491.2v-27.1h120.4v134.3c0 24.4-19.8 44.3-44.3 44.3H872.3V525h51.5c24.4 0 33.1-9.4 33.1-33.8z" style="fill:#e7effa"/><path class="st5" d="M688.8 575.8v-.2c0-7-5.7-12.7-12.7-12.7H656c-21.4 0-38.9-17.3-38.9-38.9v-.4h244.3v94.6s-67.5 54.7-101.7 62.9c-64.3 15.5-108.9 8.8-108.9 8.8-53.1 0-96-43-96-96v-1c0-2.5 1.9-4.4 4.4-4.4H676c7.1 0 12.8-5.7 12.8-12.7z"/><path class="st9" d="M857.5 654.9h35.9V523.6h-44.7V646c.1 4.9 4 8.9 8.8 8.9z"/><path class="st6" d="M883.1 632.6c0 5.6-4.5 10.1-10.1 10.1s-10.1-4.5-10.1-10.1 4.5-10.1 10.1-10.1c5.5-.1 10.1 4.4 10.1 10.1z"/><path class="st9" d="M541 391.2c.5.5 1 .5 1.5.5h12.9c.8 0 1.5-.5 2.1-1.3.3-.8.3-1.9-.5-2.3l-28.5-29h1.9c13.4 0 25.1-9.3 28.3-22.5h10.2c1.3 0 2.1-1 2.1-2.1V326c0-1.3-1-2.1-2.1-2.1h-10.2c-.8-3.4-2.3-6.7-4.1-9.6h14.2c1.3 0 2.1-1 2.1-2.1v-8.5c0-1.3-1-2.1-2.1-2.1h-54.7c-1.3 0-2.1 1-2.1 2.1v9.3c0 1.3 1 2.1 2.1 2.1h16.6c6 0 11.4 3.4 13.9 8.8H514c-1.3 0-2.1 1-2.1 2.1v8.5c0 1.3 1 2.1 2.1 2.1h30.4c-2.5 5.4-7.8 8.8-13.9 8.8h-16.6c-1.3 0-2.1 1-2.1 2.1v12.9c0 .5.3 1 .5 1.5l28.7 29.3zM1052.4 880.6H29.7C13.9 880.6 1 867.8 1 851.9V817h1080.1v34.9c.1 15.9-12.8 28.7-28.7 28.7z"/><path d="M614.7 834.4H467.4c-3.2 0-5.7-2.6-5.7-5.7v-11.6h158.8v11.6c0 3.2-2.5 5.7-5.8 5.7z" style="fill:#f4f4f6"/><path class="st6" d="M978.4 172.7H103.8c-17.4 0-31.7 14.1-31.7 31.7v581.1c0 17.4 14.1 31.7 31.7 31.7h874.7c17.4 0 31.7-14.1 31.7-31.7V204.3c-.2-17.4-14.3-31.6-31.8-31.6zm-437.3 15c6.5 0 11.7 5.3 11.7 11.7 0 6.5-5.3 11.7-11.7 11.7-6.5 0-11.7-5.3-11.7-11.7-.1-6.4 5.2-11.7 11.7-11.7zm427.6 575.4H113.5V226.7h855.2v536.4z"/></svg>
