<svg class="wb_svg" version="1.1" id="Layer_1" xmlns="http://www.w3.org/2000/svg" x="0" y="0" viewBox="0 0 1080 1080" style="enable-background:new 0 0 1080 1080" xml:space="preserve"><style>.wb_svg .st0{fill:#fff}.wb_svg .st1{fill:#f16925}</style><path class="st0" d="M616.32 8.78H168.73C108.27 8.78 63.7 36.85 63.7 89.49v491.87L104.49 1062l505.68 2.72c60.44 0 120.83-48.47 120.83-101.11V89.49c.01-52.64-54.25-80.71-114.68-80.71"/><path class="st1" d="M215.42 1080h406.56c65.9 0 109.02-38.03 109.02-97.43v-69.4H194.56"/><path class="st1" d="M557.34 913.17h6.19H63.69v69.4c0 59.4 43.12 97.43 109.02 97.43h363.76M731.01 70.4C731.01 11 674.15 0 614.76 0H157.53c-59.4 0-93.84 11-93.84 70.4v34.97h667.32V70.4z"/><path class="st0" d="M366.63 34.98h88.18v26.35h-88.18z"/><path class="st1" d="M63.69 89.49H95.1v845.78H63.69zM699.63 91.51h31.41v829.51h-31.41z"/><path class="st2" d="M410.72 1231.16c-136.62 0-247.17 110.49-247.17 247.17 0 51.55 15.72 99.23 43.64 140.19 2.11 3.12 2.67 7.03 1.54 10.62l-25.1 84 82.26-28.39c3.56-1.19 7.47-.69 10.62 1.35 38.53 25 84.66 39.39 134.21 39.39 136.68 0 247.17-110.49 247.17-247.17 0-136.67-110.49-247.16-247.17-247.16zm-101.19 107.76 44.99 74.34-18.73 18.54a12.36 12.36 0 0 0-1.93 14.87c28.58 49.5 62.45 88.01 109.88 108.91a12.352 12.352 0 0 0 13.71-2.51l19.89-19.89 72.61 45.38c-8.04 18.09-18.52 28.87-30.51 35.14-13.89 7.27-30.85 8.65-50.21 4.63-38.71-8.03-85.48-38.45-123.59-77.43-38.11-38.98-67.6-86.38-75.12-124.94-3.76-19.28-2.1-35.88 5.02-49.05 6.14-11.33 16.55-21.03 33.99-27.99z" style="fill-rule:evenodd;clip-rule:evenodd;fill:#273472" transform="translate(0 -952.362)"/><path class="st3" d="M674.33 763.93c-8.65 2.22-30.4-.48-44.3-1.24-13.88-.76-19.9.41-24.84 3.8-4.95 3.38-8.79 8.97-11.17 14.47-2.38 5.51-3.27 10.92-3.01 15.39.27 4.45 1.65 7.95 6.98 12.42 5.32 4.49 14.57 9.92 33.16 17.64 18.59 7.72 46.47 17.7 75.16 25.86 28.69 8.15 58.17 14.47 74.56 18.2 16.37 3.72 19.66 4.84 26.72 11.37 7.05 6.51 17.88 18.44 24.64 25.99 6.75 7.55 9.43 10.73 31.32-5.36 21.88-16.1 62.95-51.5 83.56-70.03 20.6-18.54 20.75-20.22 17.98-24.9-2.78-4.67-8.45-12.34-13.8-19.15-5.34-6.8-10.33-12.71-12.99-18.65-2.67-5.94-3.01-11.89-2.95-17.37l.55-16.44c.08-5.91-.18-12.7-3.21-21.84-3.02-9.13-8.82-20.62-22.52-38.29-13.73-17.65-35.36-41.49-48.72-55.95-13.35-14.46-18.42-19.54-23.85-22.75-5.44-3.21-11.24-4.55-17.49-3.18-6.25 1.37-12.95 5.45-16.92 9.98-3.98 4.52-5.26 9.48-3.84 15.31 1.4 5.83 5.48 12.52 8.48 17.01 3 4.49 4.92 6.77 5.36 9.12.43 2.36-.63 4.82-3.42 2.88-2.8-1.93-7.33-8.23-13.08-15.06-5.76-6.84-12.75-14.2-19.11-18.96-6.36-4.77-12.1-6.96-17.17-6.96-5.08-.01-9.49 2.15-13.52 4.77-4.02 2.61-7.67 5.69-9.66 9.32-2.01 3.64-2.36 7.83-.63 12.2 1.74 4.38 5.58 8.94 8.58 13.43 3 4.48 5.17 8.9 5.97 11.71.83 2.81.3 4.03-3.98-.13-4.3-4.17-12.37-13.74-19.19-20.45-6.83-6.71-12.42-10.57-18.38-12.56-5.97-1.99-12.29-2.1-17.51-.44-5.21 1.66-9.31 5.13-11.62 9.79-2.3 4.67-2.8 10.54-.82 17.05 1.98 6.52 6.44 13.66 8.62 18.07 2.15 4.41 2.01 6.09-1.83 1.54s-11.38-15.35-26.47-34.18c-15.09-18.84-37.74-45.72-51.51-60.2-13.78-14.49-18.67-16.61-24.28-17.72-5.62-1.11-11.95-1.21-17.59.4-5.62 1.64-10.57 5.02-13.48 9.42-2.93 4.4-3.81 9.82-3.46 15.76.33 5.97 1.9 12.44 22.85 39.59 20.93 27.15 61.24 74.98 83.63 102.48 22.38 27.46 26.85 34.61 18.2 36.84z" style="fill-rule:evenodd;clip-rule:evenodd;fill:#fcc39e"/><path class="st4" d="m816.59 900.99 139.96-117.83c11.13-9.37 30.43-4.74 43.12 10.33l6.23 7.4c12.69 15.07 13.95 34.88 2.82 44.25L868.76 962.97c-11.13 9.37-30.43 4.74-43.12-10.33l-6.23-7.4c-12.69-15.07-13.95-34.88-2.82-44.25z" style="fill:#273472"/><circle class="st0" cx="389.77" cy="996.59" r="35.7"/></svg>
