<svg version="1.1" id="Layer_1" xmlns="http://www.w3.org/2000/svg" x="0" y="0" viewBox="0 0 1080 1080" style="enable-background:new 0 0 1080 1080" xml:space="preserve"><style>.st0{fill:#fac19d}.st2{fill:#f26724}.st3{fill:#efa984}.st4{fill:#283372}</style><path class="st0" d="M366.7 812.6c11.7 59.1 30.9 84.4 68.4 103.1 41.7 20.9 33.6 64.9 33.6 64.9 0 19.2-17 78.3-17 78.3l413.5-.1-7-311.5-539-514.3 21 496.9 26.5 82.7z"/><path d="M397.5 6.8h345.6c46.7 0 81.1 21.7 81.1 62.3v379.8L668.2 820l-265.9 2c-46.7 0-93.3-37.4-93.3-78.1V69.1c0-40.6 41.9-62.3 88.5-62.3" style="fill:#fee1cf"/><path class="st2" d="M694.9 705c-15.2 27.1-23.8 50.4-23.8 84.5 0 19 2.7 37.5 7.7 44.3H393.1c-50.9 0-84.2-29.4-84.2-75.2V705h386zM309 54.3C309 8.5 352.9 0 398.7 0h353c45.9 0 72.5 8.5 72.5 54.3v27H309v-27z"/><path class="st0" d="M749.5 579.9s14.3-6.1 17.3-29.7c4.9-38.7 11.9-185.7 20.9-224.4 13.7-59 10.7-62.9 41.2-81.9 31.4-19.5 70.2-7.1 70.2-7.1l-.6 473.5c-10.9 144.3-39.8 187.9-39.8 187.9l6.5 142.5s-18.8-50-65-105.7c-20.3-24.4-66-46.8-95.5-71.6-64.8-54.5-51.2-134.7-51.2-134.7 0-67.2 36.1-126.6 96-148.8"/><path class="st3" d="M354.6 482.5c12.9-26.9 1.6-59.1-25.4-72.1l-43.1-24.9c-26.9-12.9-59.1-1.5-72 25.4-12.9 26.9-1.5 59.1 25.4 72l43.2 24.9c26.8 12.9 59.1 1.5 71.9-25.3"/><path class="st0" d="M357.5 373c11.1-27.7-2.3-59.1-30-70.3l-72.7-41.8c-27.7-11.1-59.1 2.3-70.2 30-11.1 27.7 4.5 54.2 30 70.2l72.8 41.8c27.6 11.2 59-2.2 70.1-29.9"/><path class="st3" d="M353.6 594.7c12.9-26.9 1.5-59.2-25.4-72l-43.1-24.9c-26.9-12.9-59.1-1.5-72 25.3-12.9 26.9-1.5 59.1 25.3 72l43.1 24.9c26.9 13 59.2 1.7 72.1-25.3"/><path class="st3" d="M339.7 701c12.9-26.9 1.6-59.1-25.3-72l-43.2-24.9c-26.9-12.9-59.1-1.5-72 25.3-12.9 26.9-1.6 59.1 25.3 72l43.2 24.9c26.9 12.9 59.2 1.6 72-25.3"/><path class="st4" d="M429.3 956h469.8v124H429.3zM608.3 274.7h-94.9c-3.1 0-6.2.9-8.8 2.7-56.8 40.2-96.8 121.6-96.8 186.5 0 84.6 68.4 103 153 103S714 548.4 714 463.9c0-64.8-40.2-146.3-96.9-186.5-2.6-1.8-5.7-2.7-8.8-2.7zm-47.5 255.2c-51.6 0-93.7-42.2-93.7-94 0-51.6 42-93.7 93.7-93.7s93.9 42 93.9 93.7c0 51.8-42.2 94-93.9 94zm-42.2-278.6H603l21.3-70.7c2.7-9.2-7.5-16.4-15.5-11.1-3.3 2.1-7.1 3.6-13 3.6-17.5 0-17.5-14-35-14-17.4 0-17.4 14-34.9 14-5.7 0-9.6-1.5-12.8-3.6-8.1-5.3-18.2 2-15.5 11.2l21 70.6z"/><path class="st2" d="M560.6 491.8c.6.6 1.3.6 1.9.6h16.2c1 0 1.9-.6 2.6-1.6.3-1 .3-2.3-.6-2.9L545 451.6h2.3c16.9 0 31.5-11.7 35.4-28.2h12.7c1.6 0 2.6-1.3 2.6-2.6v-10.7c0-1.6-1.3-2.6-2.6-2.6h-12.7c-1-4.2-2.9-8.4-5.2-12h17.8c1.6 0 2.6-1.3 2.6-2.6v-10.7c0-1.6-1.3-2.6-2.6-2.6h-68.4c-1.6 0-2.6 1.3-2.6 2.6v11.7c0 1.6 1.3 2.6 2.6 2.6h20.8c7.5 0 14.3 4.2 17.5 11h-38.3c-1.6 0-2.6 1.3-2.6 2.6v10.7c0 1.6 1.3 2.6 2.6 2.6h38c-3.2 6.8-9.7 11-17.5 11h-20.8c-1.6 0-2.6 1.3-2.6 2.6v16.2c0 .6.3 1.3.6 1.9l36 36.7z"/></svg>
