<svg class="mb_svg" version="1.1" id="Layer_1" xmlns="http://www.w3.org/2000/svg" xmlns:xlink="http://www.w3.org/1999/xlink" x="0" y="0" viewBox="0 0 1080 1080" style="enable-background:new 0 0 1080 1080" xml:space="preserve"><style>.mb_svg .st3{fill:#fff}.mb_svg .st4{fill:#283372}.mb_svg .st5{fill:#fcd8c1}.mb_svg .st7{fill:#d4d3d2}</style><pattern width="279.33" height="241.43" patternUnits="userSpaceOnUse" id="Unnamed_Pattern_11728" viewBox="0 -241.43 279.33 241.43" style="overflow:visible"><path class="st0" style="fill:none" d="M0-241.43h279.33V0H0z"/><path class="st1" style="fill:#e75d24" d="M0-241.43h279.33V0H0z"/></pattern><pattern id="SVGID_1_" xlink:href="#Unnamed_Pattern_11728" patternTransform="matrix(.9 0 0 -.9 2960.429 1962.603)"/><path class="st2" d="M804.35 1014.67c0 36.08-27.18 65.33-60.71 65.33H221.21c-33.53 0-60.71-29.24-60.71-65.33V65.33C160.5 29.25 187.68 0 221.21 0h522.44c33.53 0 60.71 29.25 60.71 65.33v949.34z" style="fill:url(#SVGID_1_)"/><path class="st3" d="M767.65 958.43V78.68c0-23.66-12.67-40.36-36.34-40.36H607.08L586.2 90.24H477.66V998.9h256.1c20.47 0 33.89-18.61 33.89-35.68 0-1.65.26-3.16 0-4.79"/><path class="st3" d="M196.52 958.43V78.68c0-23.66 12.68-40.36 36.34-40.36h124.23l20.88 51.93h108.54V998.9H230.42c-20.48 0-33.89-18.61-33.89-35.68-.01-1.65-.27-3.16-.01-4.79"/><path class="st4" d="m460.4 673.18 2.15 85.15 98.02-82.65z"/><path class="st5" d="M570.69 307.36c0 17.39-14.1 31.47-31.47 31.47H88.31c-17.39 0-31.48-14.08-31.48-31.47V150.9c0-17.38 14.09-31.47 31.48-31.47h450.92c17.37 0 31.47 14.09 31.47 31.47v156.46z"/><path class="st3" d="M264.68 194.48h115.48v17.32H264.68zM264.69 240.67h219.4v17.32h-219.4z"/><path class="st5" d="m517.39 338.83 1 58.52-77.03-58.52z"/><path class="st3" d="M170.82 222.41c14.87 0 26.92-12.05 26.92-26.91 0-14.87-12.05-26.91-26.92-26.91-14.86 0-26.92 12.05-26.92 26.91s12.05 26.91 26.92 26.91M172.7 230.99c-26.18 0-47.41 15.46-47.41 38.55h94.83c0-23.09-21.24-38.55-47.42-38.55"/><path class="st4" d="M373.95 646.64c0 21.58 17.48 39.05 39.05 39.05h571.1c21.57 0 39.06-17.47 39.06-39.05v-201.6c0-21.57-17.5-39.06-39.06-39.06H413c-21.58 0-39.05 17.49-39.05 39.06v201.6z"/><path class="st3" d="M487.81 508.68h300.94v21.5H487.81zM487.81 573.17H695.6v21.5H487.81zM894.77 548.76c20.89 0 37.78-16.92 37.78-37.8 0-20.88-16.9-37.79-37.78-37.79-20.88 0-37.8 16.91-37.8 37.79s16.92 37.8 37.8 37.8M894.04 556c-42.67 0-77.25 28.13-77.25 62.83H971.3c0-34.7-34.57-62.83-77.26-62.83"/><path class="st6" d="M743.85 159.64c0 35.65-28.9 64.54-64.54 64.54-35.66 0-64.56-28.89-64.56-64.54 0-35.66 28.89-64.55 64.56-64.55 35.63 0 64.54 28.89 64.54 64.55" style="fill:#e28426"/><path class="st3" d="M664.54 147.11c.4-1.63 3.79-4.09 5.07-5.4 2.45-2.53 4.74-4.52 1.91-9.9-1.76-3.36-4.24-7.22-7-9.75-4.8-4.4-13.48 1.74-15.9 6.66-12.18 24.81 30.01 73.59 56.59 65.42 5.23-1.6 12.53-9.38 8.88-14.76-2.12-3.1-5.58-6.11-8.65-8.34-4.92-3.58-7.21-1.59-10.06.46-1.5 1.07-4.42 4.03-6.09 4.23-8.56 1.05-26.88-20.12-24.75-28.62"/><path class="st7" d="M263.37 782.14h268.37v72.25H263.37zM263.37 883.6h439.6v72.25h-439.6z"/></svg>
